# xmcd
#
# Track frame offsets:
#	150
#	25684
#	53763
#	68162
#	86018
#	130914
#	154328
#
# Disc length: 2272 seconds
# Revision: 0
# Processed by: cddbd v1.5.2PL0 Copyright (c) Steve Scherf et al.
# Submitted via: dBpowerAMP V12.0
#
DISCID=5508de07
DTITLE=Steel Panther - All You Can Eat (Deluxe Edition Bonus DVD)
DYEAR=2014
DGENRE=Hard Rock
TTITLE0=Party Like Tomorrow Is The End Of The World (Live In Australia)
TTITLE1=Gloryhole (Live In Australia)
TTITLE2=Death To All But Metal (Live In Australia)
TTITLE3=Community Property (Live In Australia)
TTITLE4=Girls In A Row (Live In Australia)
TTITLE5=Party Like Tomorrow Is The End Of World (Video Version)
TTITLE6=The Burden Of Being Wonderful (Video Version)
EXTD=
EXTT0=
EXTT1=
EXTT2=
EXTT3=
EXTT4=
EXTT5=
EXTT6=
PLAYORDER=
